<svg width="62" height="68" viewBox="0 0 62 68" fill="none" xmlns="http://www.w3.org/2000/svg">
<g filter="url(#filter0_d_28_71)">
<path d="M53.5 31.94C53.5 37.0818 49.6008 41.3855 44.4839 41.8915L31.6408 43.1613C30.5686 43.2673 29.7731 44.2037 29.8417 45.279L30.4926 55.4762C30.6088 57.2975 28.4249 58.3102 27.1098 57.0447L7.63766 38.3063C3.92345 34.732 3.53465 28.9201 6.73967 24.883L23.5246 3.74038C24.6661 2.30245 26.9797 3.03369 27.0875 4.86648L27.7713 16.4907C27.8335 17.5478 28.7089 18.3733 29.7678 18.3733L43.5 18.3733C49.0229 18.3733 53.5 22.8504 53.5 28.3733L53.5 31.94Z" fill="#DD422C"/>
</g>
<defs>
<filter id="filter0_d_28_71" x="0.571548" y="0.980896" width="60.9284" height="66.6277" filterUnits="userSpaceOnUse" color-interpolation-filters="sRGB">
<feFlood flood-opacity="0" result="BackgroundImageFix"/>
<feColorMatrix in="SourceAlpha" type="matrix" values="0 0 0 0 0 0 0 0 0 0 0 0 0 0 0 0 0 0 127 0" result="hardAlpha"/>
<feOffset dx="2" dy="4"/>
<feGaussianBlur stdDeviation="3"/>
<feComposite in2="hardAlpha" operator="out"/>
<feColorMatrix type="matrix" values="0 0 0 0 0.188235 0 0 0 0 0.188235 0 0 0 0 0.188235 0 0 0 0.2 0"/>
<feBlend mode="normal" in2="BackgroundImageFix" result="effect1_dropShadow_28_71"/>
<feBlend mode="normal" in="SourceGraphic" in2="effect1_dropShadow_28_71" result="shape"/>
</filter>
</defs>
</svg>
