<svg width="65" height="59" viewBox="0 0 65 59" fill="none" xmlns="http://www.w3.org/2000/svg">
<g filter="url(#filter0_d_33_131)">
<path d="M28.1076 3.19228C29.4911 1.83435 31.7072 1.83434 33.0908 3.19228L55.1934 24.8859C57.4665 27.1169 55.8868 30.9815 52.7018 30.9815H8.49654C5.31153 30.9815 3.73187 27.1169 6.00494 24.8859L28.1076 3.19228Z" fill="#DD422C"/>
<path d="M13.9997 29.203C13.9997 27.8934 15.0614 26.8317 16.371 26.8317H44.8273C46.1369 26.8317 47.1986 27.8934 47.1986 29.203V45.8025C47.1986 47.1121 46.1369 48.1738 44.8273 48.1738H35.5743C35.022 48.1738 34.5743 47.7261 34.5743 47.1738V38.7441C34.5743 38.1918 34.1265 37.7441 33.5743 37.7441H30.4244H27.2745C26.7222 37.7441 26.2745 38.1918 26.2745 38.7441V47.1738C26.2745 47.7261 25.8268 48.1738 25.2745 48.1738H16.371C15.0614 48.1738 13.9997 47.1121 13.9997 45.8025V29.203Z" fill="#DD422C"/>
</g>
<defs>
<filter id="filter0_d_33_131" x="0.932373" y="0.173828" width="63.3336" height="58" filterUnits="userSpaceOnUse" color-interpolation-filters="sRGB">
<feFlood flood-opacity="0" result="BackgroundImageFix"/>
<feColorMatrix in="SourceAlpha" type="matrix" values="0 0 0 0 0 0 0 0 0 0 0 0 0 0 0 0 0 0 127 0" result="hardAlpha"/>
<feOffset dx="2" dy="4"/>
<feGaussianBlur stdDeviation="3"/>
<feComposite in2="hardAlpha" operator="out"/>
<feColorMatrix type="matrix" values="0 0 0 0 0.188235 0 0 0 0 0.188235 0 0 0 0 0.188235 0 0 0 0.2 0"/>
<feBlend mode="normal" in2="BackgroundImageFix" result="effect1_dropShadow_33_131"/>
<feBlend mode="normal" in="SourceGraphic" in2="effect1_dropShadow_33_131" result="shape"/>
</filter>
</defs>
</svg>
